<svg xmlns="http://www.w3.org/2000/svg" xmlns:xlink="http://www.w3.org/1999/xlink" viewBox="0 0 430 430" width="430" height="430" preserveAspectRatio="xMidYMid meet" style="width: 100%; height: 100%; transform: translate3d(0px, 0px, 0px); content-visibility: visible;"><defs><clipPath id="__lottie_element_26"><rect width="430" height="430" x="0" y="0"/></clipPath><clipPath id="__lottie_element_28"><path d="M0,0 L430,0 L430,430 L0,430z"/></clipPath><clipPath id="__lottie_element_33"><path d="M0,0 L430,0 L430,430 L0,430z"/></clipPath><clipPath id="__lottie_element_37"><path d="M0,0 L430,0 L430,430 L0,430z"/></clipPath><g id="__lottie_element_40"><g clip-path="url(#__lottie_element_41)" transform="matrix(1,0,0,1,0,10)" opacity="1" style="display: block;"><g transform="matrix(0.7071067690849304,-0.7071067690849304,0.7071067690849304,0.7071067690849304,211.443603515625,204.69808959960938)" opacity="1" style="display: none;"><g opacity="1" transform="matrix(1,0,0,1,0,0)"><path class="primary" fill="rgb(197,156,244)" fill-opacity="1" d=" M-37.614051818847656,21.015995025634766 C-37.614051818847656,21.015995025634766 112.93003845214844,20.526147842407227 112.93003845214844,20.526147842407227 C112.93003845214844,20.526147842407227 112.93003845214844,20.552532196044922 112.93003845214844,20.552532196044922 C112.93003845214844,20.552532196044922 144.34703063964844,20.552532196044922 144.34703063964844,20.552532196044922 C144.34703063964844,20.552532196044922 144.34703063964844,20.536001205444336 144.34703063964844,20.536001205444336 C144.34703063964844,20.536001205444336 175.7640380859375,20.536001205444336 175.7640380859375,20.536001205444336 C175.7640380859375,20.536001205444336 175.7640380859375,20.552532196044922 175.7640380859375,20.552532196044922 C175.7640380859375,20.552532196044922 207.18003845214844,20.552532196044922 207.18003845214844,20.552532196044922 C207.18003845214844,20.552532196044922 207.18003845214844,20.526147842407227 207.18003845214844,20.526147842407227 C207.18003845214844,20.526147842407227 220.15103149414062,20.52608871459961 220.15103149414062,20.52608871459961 C226.28604125976562,20.52608871459961 231.1331329345703,16.552284240722656 231.1331329345703,10.41728401184082 C231.1331329345703,10.41728401184082 231.25689697265625,6.319764137268066 231.25689697265625,6.319764137268066 C231.25689697265625,0.18476422131061554 226.2838897705078,-4.788235664367676 220.14990234375,-4.788235664367676 C220.14990234375,-4.788235664367676 -37.61519241333008,-4.298328399658203 -37.61519241333008,-4.298328399658203"/></g></g><g transform="matrix(0.7071067690849304,-0.7071067690849304,0.7071067690849304,0.7071067690849304,211.443603515625,204.69808959960938)" opacity="1" style="display: block;"><g opacity="1" transform="matrix(1,0,0,1,0,0)"><path class="primary" fill="rgb(197,156,244)" fill-opacity="1" d=" M-36.78499984741211,61.933998107910156 C-36.78499984741211,61.933998107910156 111.38600158691406,61.63100051879883 111.38600158691406,61.63100051879883 C111.38600158691406,61.63100051879883 111.38600158691406,90.66699981689453 111.38600158691406,90.66699981689453 C111.38600158691406,90.66699981689453 142.80299377441406,90.66699981689453 142.80299377441406,90.66699981689453 C142.80299377441406,90.66699981689453 142.80299377441406,72.625 142.80299377441406,72.625 C142.80299377441406,72.625 174.22000122070312,72.625 174.22000122070312,72.625 C174.22000122070312,72.625 174.22000122070312,90.66699981689453 174.22000122070312,90.66699981689453 C174.22000122070312,90.66699981689453 205.63600158691406,90.66600036621094 205.63600158691406,90.66600036621094 C205.63600158691406,90.66600036621094 205.63600158691406,61.63100051879883 205.63600158691406,61.63100051879883 C205.63600158691406,61.63100051879883 218.60699462890625,61.558998107910156 218.60699462890625,61.558998107910156 C224.74200439453125,61.558998107910156 229.71400451660156,56.58599853515625 229.71400451660156,50.45100021362305 C229.71400451660156,50.45100021362305 231.12899780273438,-0.17499999701976776 231.12899780273438,-0.17499999701976776 C231.12899780273438,-6.309999942779541 226.15499877929688,-11.282999992370605 220.02099609375,-11.282999992370605 C220.02099609375,-11.282999992370605 -35.37099838256836,-10.907999992370605 -35.37099838256836,-10.907999992370605"/></g></g><g transform="matrix(0.7071067690849304,-0.7071067690849304,-0.7071067690849304,-0.7071067690849304,221.54391479492188,216.44540405273438)" opacity="1" style="display: none;"><g opacity="1" transform="matrix(1,0,0,1,0,0)"><path class="primary" fill="rgb(197,156,244)" fill-opacity="1" d=" M-37.61519241333008,20.990934371948242 C-37.61519241333008,20.990934371948242 112.935302734375,20.50080108642578 112.935302734375,20.50080108642578 C112.935302734375,20.50080108642578 112.935302734375,20.52718734741211 112.935302734375,20.52718734741211 C112.935302734375,20.52718734741211 144.3459014892578,20.5274715423584 144.3459014892578,20.5274715423584 C144.3459014892578,20.5274715423584 144.3459014892578,20.510940551757812 144.3459014892578,20.510940551757812 C144.3459014892578,20.510940551757812 175.76930236816406,20.51065444946289 175.76930236816406,20.51065444946289 C175.76930236816406,20.51065444946289 175.76930236816406,20.52718734741211 175.76930236816406,20.52718734741211 C175.76930236816406,20.52718734741211 207.17889404296875,20.5274715423584 207.17889404296875,20.5274715423584 C207.17889404296875,20.5274715423584 207.17889404296875,20.50108528137207 207.17889404296875,20.50108528137207 C207.17889404296875,20.50108528137207 220.14990234375,20.501028060913086 220.14990234375,20.501028060913086 C226.28489685058594,20.501028060913086 231.1320037841797,16.5272216796875 231.1320037841797,10.39222240447998 C231.1320037841797,10.39222240447998 231.25689697265625,6.319764137268066 231.25689697265625,6.319764137268066 C231.25689697265625,0.18476422131061554 226.2838897705078,-4.788235664367676 220.14990234375,-4.788235664367676 C220.14990234375,-4.788235664367676 -37.61519241333008,-4.298328399658203 -37.61519241333008,-4.298328399658203"/></g></g></g></g><clipPath id="__lottie_element_41"><path d="M0,0 L430,0 L430,430 L0,430z"/></clipPath><clipPath id="__lottie_element_51"><path d="M0,0 L430,0 L430,430 L0,430z"/></clipPath><clipPath id="__lottie_element_55"><path d="M0,0 L430,0 L430,430 L0,430z"/></clipPath><g id="__lottie_element_58"><g clip-path="url(#__lottie_element_59)" transform="matrix(1,0,0,1,2.75,9.5)" opacity="1" style="display: block;"><g transform="matrix(0.7071067690849304,-0.7071067690849304,0.7071067690849304,0.7071067690849304,211.443603515625,204.69808959960938)" opacity="1" style="display: none;"><path class="primary" fill="rgb(197,156,244)" fill-opacity="1" d=" M-75.75740814208984,-5.2252197265625 C-75.75740814208984,-5.2252197265625 -75.13143920898438,0.5850558280944824 -75.21942901611328,7.147427558898926 C-75.30342864990234,13.35236930847168 -75.71244049072266,20.13340187072754 -75.71244049072266,20.13340187072754 C-75.71244049072266,20.13340187072754 -47.863037109375,19.962970733642578 -47.863037109375,19.962970733642578 C-40.94003677368164,19.962970733642578 -35.32703399658203,14.349969863891602 -35.32703399658203,7.4269700050354 C-35.32703399658203,7.4269700050354 -35.32703399658203,7.4269700050354 -35.32703399658203,7.4269700050354 C-35.32703399658203,7.4269700050354 -35.37099838256836,7.4930644035339355 -35.37099838256836,7.4930644035339355 C-35.37099838256836,7.4930644035339355 -35.37099838256836,7.4930644035339355 -35.37099838256836,7.4930644035339355 C-35.37099838256836,0.5700645446777344 -40.98400115966797,-5.042935371398926 -47.90700149536133,-5.042935371398926 C-47.90700149536133,-5.042935371398926 -75.75740814208984,-5.2252197265625 -75.75740814208984,-5.2252197265625z"/><g opacity="1" transform="matrix(1,0,0,1,0,0)"/></g><g transform="matrix(0.7071067690849304,-0.7071067690849304,0.7071067690849304,0.7071067690849304,211.443603515625,204.69808959960938)" opacity="1" style="display: block;"><path class="primary" fill="rgb(197,156,244)" fill-opacity="1" d=" M-83.70600128173828,-30.30699920654297 C-83.70600128173828,-30.30699920654297 -74.43399810791016,-19.19300079345703 -74.51300048828125,7.677999973297119 C-74.59700012207031,36.138999938964844 -83.70600128173828,44.20000076293945 -83.70600128173828,44.20000076293945 C-83.70600128173828,44.20000076293945 -47.90700149536133,44.736000061035156 -47.90700149536133,44.736000061035156 C-40.98400115966797,44.736000061035156 -35.37099838256836,39.12200164794922 -35.37099838256836,32.19900131225586 C-35.37099838256836,32.19900131225586 -35.37099838256836,32.19900131225586 -35.37099838256836,32.19900131225586 C-35.37099838256836,32.19900131225586 -35.37099838256836,-17.236000061035156 -35.37099838256836,-17.236000061035156 C-35.37099838256836,-17.236000061035156 -35.37099838256836,-17.236000061035156 -35.37099838256836,-17.236000061035156 C-35.37099838256836,-24.159000396728516 -40.98400115966797,-29.77199935913086 -47.90700149536133,-29.77199935913086 C-47.90700149536133,-29.77199935913086 -83.70600128173828,-30.30699920654297 -83.70600128173828,-30.30699920654297z"/><g opacity="1" transform="matrix(1,0,0,1,0,0)"/></g><g transform="matrix(0.7071067690849304,-0.7071067690849304,-0.7071067690849304,-0.7071067690849304,221.54391479492188,216.44540405273438)" opacity="1" style="display: none;"><path class="primary" fill="rgb(197,156,244)" fill-opacity="1" d=" M-75.75740814208984,-5.2252197265625 C-75.75740814208984,-5.2252197265625 -75.13143920898438,0.5850558280944824 -75.21942901611328,7.147427558898926 C-75.30342864990234,13.35236930847168 -75.71244049072266,20.13340187072754 -75.71244049072266,20.13340187072754 C-75.71244049072266,20.13340187072754 -47.863037109375,19.962970733642578 -47.863037109375,19.962970733642578 C-40.94003677368164,19.962970733642578 -35.32703399658203,14.349969863891602 -35.32703399658203,7.4269700050354 C-35.32703399658203,7.4269700050354 -35.32703399658203,7.4269700050354 -35.32703399658203,7.4269700050354 C-35.32703399658203,7.4269700050354 -35.37099838256836,7.4930644035339355 -35.37099838256836,7.4930644035339355 C-35.37099838256836,7.4930644035339355 -35.37099838256836,7.4930644035339355 -35.37099838256836,7.4930644035339355 C-35.37099838256836,0.5700645446777344 -40.98400115966797,-5.042935371398926 -47.90700149536133,-5.042935371398926 C-47.90700149536133,-5.042935371398926 -75.75740814208984,-5.2252197265625 -75.75740814208984,-5.2252197265625z"/><g opacity="1" transform="matrix(1,0,0,1,0,0)"/></g></g></g><clipPath id="__lottie_element_59"><path d="M0,0 L430,0 L430,430 L0,430z"/></clipPath><clipPath id="__lottie_element_63"><path d="M0,0 L430,0 L430,430 L0,430z"/></clipPath><clipPath id="__lottie_element_67"><path d="M0,0 L430,0 L430,430 L0,430z"/></clipPath><g id="__lottie_element_70"><g clip-path="url(#__lottie_element_71)" transform="matrix(1,0,0,1,2.75,9.5)" opacity="1" style="display: block;"><g transform="matrix(0.7071067690849304,-0.7071067690849304,0.7071067690849304,0.7071067690849304,211.443603515625,204.69808959960938)" opacity="1" style="display: none;"><g opacity="1" transform="matrix(1,0,0,1,0,0)"><path class="primary" fill="rgb(197,156,244)" fill-opacity="1" d=" M-68.9740219116211,-4.848334789276123 C-68.9740219116211,-4.704629898071289 -102.98302459716797,-4.589305877685547 -144.93601989746094,-4.589305877685547 C-186.88902282714844,-4.589305877685547 -220.89901733398438,-4.704629898071289 -220.89901733398438,-4.848334789276123 C-220.89901733398438,-4.992039680480957 -186.88902282714844,-5.108362197875977 -144.93601989746094,-5.108362197875977 C-102.98302459716797,-5.108362197875977 -68.9740219116211,-4.992039680480957 -68.9740219116211,-4.848334789276123z"/></g></g><g transform="matrix(0.7071067690849304,-0.7071067690849304,0.7071067690849304,0.7071067690849304,211.443603515625,204.69808959960938)" opacity="1" style="display: block;"><g opacity="1" transform="matrix(1,0,0,1,0,0)"><path class="primary" fill="rgb(197,156,244)" fill-opacity="1" d=" M-69.00199890136719,7.142000198364258 C-69.00199890136719,-34.59199905395508 -103.01200103759766,-68.42500305175781 -144.96499633789062,-68.42500305175781 C-186.91799926757812,-68.42500305175781 -220.927001953125,-34.59199905395508 -220.927001953125,7.142000198364258 C-220.927001953125,48.875999450683594 -186.91799926757812,82.70800018310547 -144.96499633789062,82.70800018310547 C-103.01200103759766,82.70800018310547 -69.00199890136719,48.875999450683594 -69.00199890136719,7.142000198364258z"/></g></g><g transform="matrix(0.7071067690849304,-0.7071067690849304,-0.7071067690849304,-0.7071067690849304,221.54391479492188,216.44540405273438)" opacity="1" style="display: none;"><g opacity="1" transform="matrix(1,0,0,1,0,0)"><path class="primary" fill="rgb(197,156,244)" fill-opacity="1" d=" M-68.87310028076172,20.131528854370117 C-68.87310028076172,20.207822799682617 -102.8821029663086,20.26849937438965 -144.83509826660156,20.26849937438965 C-186.78810119628906,20.26849937438965 -220.79811096191406,20.207822799682617 -220.79811096191406,20.131528854370117 C-220.79811096191406,20.055234909057617 -186.78810119628906,19.99355697631836 -144.83509826660156,19.99355697631836 C-102.8821029663086,19.99355697631836 -68.87310028076172,20.055234909057617 -68.87310028076172,20.131528854370117z"/></g></g></g></g><clipPath id="__lottie_element_71"><path d="M0,0 L430,0 L430,430 L0,430z"/></clipPath><filter id="__lottie_element_77" filterUnits="objectBoundingBox" x="0%" y="0%" width="100%" height="100%"><feComponentTransfer in="SourceGraphic"><feFuncA type="table" tableValues="1.0 0.0"/></feComponentTransfer></filter><mask id="__lottie_element_70_2" mask-type="alpha"><g filter="url(#__lottie_element_77)"><rect width="430" height="430" x="0" y="0" fill="#ffffff" opacity="0"/><use xmlns:ns1="http://www.w3.org/1999/xlink" ns1:href="#__lottie_element_70"/></g></mask><filter id="__lottie_element_78" filterUnits="objectBoundingBox" x="0%" y="0%" width="100%" height="100%"><feComponentTransfer in="SourceGraphic"><feFuncA type="table" tableValues="1.0 0.0"/></feComponentTransfer></filter><mask id="__lottie_element_58_2" mask-type="alpha"><g filter="url(#__lottie_element_78)"><rect width="430" height="430" x="0" y="0" fill="#ffffff" opacity="0"/><use xmlns:ns2="http://www.w3.org/1999/xlink" ns2:href="#__lottie_element_58"/></g></mask><filter id="__lottie_element_79" filterUnits="objectBoundingBox" x="0%" y="0%" width="100%" height="100%"><feComponentTransfer in="SourceGraphic"><feFuncA type="table" tableValues="1.0 0.0"/></feComponentTransfer></filter><mask id="__lottie_element_40_2" mask-type="alpha"><g filter="url(#__lottie_element_79)"><rect width="430" height="430" x="0" y="0" fill="#ffffff" opacity="0"/><use xmlns:ns3="http://www.w3.org/1999/xlink" ns3:href="#__lottie_element_40"/></g></mask></defs><g clip-path="url(#__lottie_element_26)"><g clip-path="url(#__lottie_element_28)" transform="matrix(1,0,0,1,0,0)" opacity="1" style="display: block;"><g clip-path="url(#__lottie_element_33)" transform="matrix(1,0,0,1,0,0)" opacity="1" style="display: block;"><g transform="matrix(0.7071067690849304,-0.7071067690849304,0.7071067690849304,0.7071067690849304,211.443603515625,204.69808959960938)" opacity="1" style="display: none;"><g opacity="1" transform="matrix(1,0,0,1,0,0)"><path class="primary" fill="rgb(197,156,244)" fill-opacity="1" d=" M-61.28411102294922,21.343650817871094 C-61.28411102294922,21.343650817871094 112.92889404296875,20.50108528137207 112.92889404296875,20.50108528137207 C112.92889404296875,20.50108528137207 112.92889404296875,20.5274715423584 112.92889404296875,20.5274715423584 C112.92889404296875,20.5274715423584 144.3459014892578,20.5274715423584 144.3459014892578,20.5274715423584 C144.3459014892578,20.5274715423584 144.3459014892578,20.510940551757812 144.3459014892578,20.510940551757812 C144.3459014892578,20.510940551757812 175.7628936767578,20.510940551757812 175.7628936767578,20.510940551757812 C175.7628936767578,20.510940551757812 175.7628936767578,20.5274715423584 175.7628936767578,20.5274715423584 C175.7628936767578,20.5274715423584 207.17889404296875,20.5274715423584 207.17889404296875,20.5274715423584 C207.17889404296875,20.5274715423584 207.17889404296875,20.50108528137207 207.17889404296875,20.50108528137207 C207.17889404296875,20.50108528137207 220.14889526367188,20.501028060913086 220.14889526367188,20.501028060913086 C226.2838897705078,20.501028060913086 231.13099670410156,16.5272216796875 231.13099670410156,10.39222240447998 C231.13099670410156,10.39222240447998 231.25689697265625,6.319764137268066 231.25689697265625,6.319764137268066 C231.25689697265625,0.18476422131061554 226.28289794921875,-4.788235664367676 220.14889526367188,-4.788235664367676 C220.14889526367188,-4.788235664367676 -61.28411102294922,-3.944613456726074 -61.28411102294922,-3.944613456726074"/></g></g><g transform="matrix(0.7071067690849304,-0.7071067690849304,0.7071067690849304,0.7071067690849304,211.443603515625,204.69808959960938)" opacity="1" style="display: block;"><g opacity="1" transform="matrix(1,0,0,1,0,0)"><path class="primary" fill="rgb(197,156,244)" fill-opacity="1" d=" M-35.37099838256836,25.871999740600586 C-35.37099838256836,25.871999740600586 112.8010025024414,25.569000244140625 112.8010025024414,25.569000244140625 C112.8010025024414,25.569000244140625 112.8010025024414,54.604000091552734 112.8010025024414,54.604000091552734 C112.8010025024414,54.604000091552734 144.2169952392578,54.604000091552734 144.2169952392578,54.604000091552734 C144.2169952392578,54.604000091552734 144.2169952392578,36.5629997253418 144.2169952392578,36.5629997253418 C144.2169952392578,36.5629997253418 175.63400268554688,36.5629997253418 175.63400268554688,36.5629997253418 C175.63400268554688,36.5629997253418 175.63400268554688,54.604000091552734 175.63400268554688,54.604000091552734 C175.63400268554688,54.604000091552734 207.05099487304688,54.604000091552734 207.05099487304688,54.604000091552734 C207.05099487304688,54.604000091552734 207.05099487304688,25.569000244140625 207.05099487304688,25.569000244140625 C207.05099487304688,25.569000244140625 220.02099609375,25.496999740600586 220.02099609375,25.496999740600586 C226.156005859375,25.496999740600586 231.1280059814453,20.52400016784668 231.1280059814453,14.388999938964844 C231.1280059814453,14.388999938964844 231.1280059814453,-0.17499999701976776 231.1280059814453,-0.17499999701976776 C231.1280059814453,-6.309999942779541 226.156005859375,-11.282999992370605 220.02099609375,-11.282999992370605 C220.02099609375,-11.282999992370605 -35.37099838256836,-10.907999992370605 -35.37099838256836,-10.907999992370605"/></g></g><g transform="matrix(0.7071067690849304,-0.7071067690849304,-0.7071067690849304,-0.7071067690849304,221.54391479492188,216.44540405273438)" opacity="1" style="display: none;"><g opacity="1" transform="matrix(1,0,0,1,0,0)"><path class="primary" fill="rgb(197,156,244)" fill-opacity="1" d=" M-61.28411102294922,21.343650817871094 C-61.28411102294922,21.343650817871094 112.92889404296875,20.50108528137207 112.92889404296875,20.50108528137207 C112.92889404296875,20.50108528137207 112.92889404296875,20.5274715423584 112.92889404296875,20.5274715423584 C112.92889404296875,20.5274715423584 144.3459014892578,20.5274715423584 144.3459014892578,20.5274715423584 C144.3459014892578,20.5274715423584 144.3459014892578,20.510940551757812 144.3459014892578,20.510940551757812 C144.3459014892578,20.510940551757812 175.7628936767578,20.510940551757812 175.7628936767578,20.510940551757812 C175.7628936767578,20.510940551757812 175.7628936767578,20.5274715423584 175.7628936767578,20.5274715423584 C175.7628936767578,20.5274715423584 207.17889404296875,20.5274715423584 207.17889404296875,20.5274715423584 C207.17889404296875,20.5274715423584 207.17889404296875,20.50108528137207 207.17889404296875,20.50108528137207 C207.17889404296875,20.50108528137207 220.14889526367188,20.501028060913086 220.14889526367188,20.501028060913086 C226.2838897705078,20.501028060913086 231.13099670410156,16.5272216796875 231.13099670410156,10.39222240447998 C231.13099670410156,10.39222240447998 231.25689697265625,6.319764137268066 231.25689697265625,6.319764137268066 C231.25689697265625,0.18476422131061554 226.28289794921875,-4.788235664367676 220.14889526367188,-4.788235664367676 C220.14889526367188,-4.788235664367676 -61.28411102294922,-3.944613456726074 -61.28411102294922,-3.944613456726074"/></g></g></g><g mask="url(#__lottie_element_40_2)" style="mix-blend-mode: multiply; display: block;"><g clip-path="url(#__lottie_element_37)" transform="matrix(1,0,0,1,0,0)" opacity="0.5"><g transform="matrix(0.7071067690849304,-0.7071067690849304,0.7071067690849304,0.7071067690849304,211.443603515625,204.69808959960938)" opacity="1" style="display: none;"><g opacity="1" transform="matrix(1,0,0,1,0,0)"><path class="primary" fill="rgb(197,156,244)" fill-opacity="1" d=" M-61.28411102294922,21.343650817871094 C-61.28411102294922,21.343650817871094 112.92889404296875,20.50108528137207 112.92889404296875,20.50108528137207 C112.92889404296875,20.50108528137207 112.92889404296875,20.5274715423584 112.92889404296875,20.5274715423584 C112.92889404296875,20.5274715423584 144.3459014892578,20.5274715423584 144.3459014892578,20.5274715423584 C144.3459014892578,20.5274715423584 144.3459014892578,20.510940551757812 144.3459014892578,20.510940551757812 C144.3459014892578,20.510940551757812 175.7628936767578,20.510940551757812 175.7628936767578,20.510940551757812 C175.7628936767578,20.510940551757812 175.7628936767578,20.5274715423584 175.7628936767578,20.5274715423584 C175.7628936767578,20.5274715423584 207.17889404296875,20.5274715423584 207.17889404296875,20.5274715423584 C207.17889404296875,20.5274715423584 207.17889404296875,20.50108528137207 207.17889404296875,20.50108528137207 C207.17889404296875,20.50108528137207 220.14889526367188,20.501028060913086 220.14889526367188,20.501028060913086 C226.2838897705078,20.501028060913086 231.13099670410156,16.5272216796875 231.13099670410156,10.39222240447998 C231.13099670410156,10.39222240447998 231.25689697265625,6.319764137268066 231.25689697265625,6.319764137268066 C231.25689697265625,0.18476422131061554 226.28289794921875,-4.788235664367676 220.14889526367188,-4.788235664367676 C220.14889526367188,-4.788235664367676 -61.28411102294922,-3.944613456726074 -61.28411102294922,-3.944613456726074"/></g></g><g transform="matrix(0.7071067690849304,-0.7071067690849304,0.7071067690849304,0.7071067690849304,211.443603515625,204.69808959960938)" opacity="1" style="display: block;"><g opacity="1" transform="matrix(1,0,0,1,0,0)"><path class="primary" fill="rgb(197,156,244)" fill-opacity="1" d=" M-35.37099838256836,25.871999740600586 C-35.37099838256836,25.871999740600586 112.8010025024414,25.569000244140625 112.8010025024414,25.569000244140625 C112.8010025024414,25.569000244140625 112.8010025024414,54.604000091552734 112.8010025024414,54.604000091552734 C112.8010025024414,54.604000091552734 144.2169952392578,54.604000091552734 144.2169952392578,54.604000091552734 C144.2169952392578,54.604000091552734 144.2169952392578,36.5629997253418 144.2169952392578,36.5629997253418 C144.2169952392578,36.5629997253418 175.63400268554688,36.5629997253418 175.63400268554688,36.5629997253418 C175.63400268554688,36.5629997253418 175.63400268554688,54.604000091552734 175.63400268554688,54.604000091552734 C175.63400268554688,54.604000091552734 207.05099487304688,54.604000091552734 207.05099487304688,54.604000091552734 C207.05099487304688,54.604000091552734 207.05099487304688,25.569000244140625 207.05099487304688,25.569000244140625 C207.05099487304688,25.569000244140625 220.02099609375,25.496999740600586 220.02099609375,25.496999740600586 C226.156005859375,25.496999740600586 231.1280059814453,20.52400016784668 231.1280059814453,14.388999938964844 C231.1280059814453,14.388999938964844 231.1280059814453,-0.17499999701976776 231.1280059814453,-0.17499999701976776 C231.1280059814453,-6.309999942779541 226.156005859375,-11.282999992370605 220.02099609375,-11.282999992370605 C220.02099609375,-11.282999992370605 -35.37099838256836,-10.907999992370605 -35.37099838256836,-10.907999992370605"/></g></g><g transform="matrix(0.7071067690849304,-0.7071067690849304,-0.7071067690849304,-0.7071067690849304,221.54391479492188,216.44540405273438)" opacity="1" style="display: none;"><g opacity="1" transform="matrix(1,0,0,1,0,0)"><path class="primary" fill="rgb(197,156,244)" fill-opacity="1" d=" M-61.28411102294922,21.343650817871094 C-61.28411102294922,21.343650817871094 112.92889404296875,20.50108528137207 112.92889404296875,20.50108528137207 C112.92889404296875,20.50108528137207 112.92889404296875,20.5274715423584 112.92889404296875,20.5274715423584 C112.92889404296875,20.5274715423584 144.3459014892578,20.5274715423584 144.3459014892578,20.5274715423584 C144.3459014892578,20.5274715423584 144.3459014892578,20.510940551757812 144.3459014892578,20.510940551757812 C144.3459014892578,20.510940551757812 175.7628936767578,20.510940551757812 175.7628936767578,20.510940551757812 C175.7628936767578,20.510940551757812 175.7628936767578,20.5274715423584 175.7628936767578,20.5274715423584 C175.7628936767578,20.5274715423584 207.17889404296875,20.5274715423584 207.17889404296875,20.5274715423584 C207.17889404296875,20.5274715423584 207.17889404296875,20.50108528137207 207.17889404296875,20.50108528137207 C207.17889404296875,20.50108528137207 220.14889526367188,20.501028060913086 220.14889526367188,20.501028060913086 C226.2838897705078,20.501028060913086 231.13099670410156,16.5272216796875 231.13099670410156,10.39222240447998 C231.13099670410156,10.39222240447998 231.25689697265625,6.319764137268066 231.25689697265625,6.319764137268066 C231.25689697265625,0.18476422131061554 226.28289794921875,-4.788235664367676 220.14889526367188,-4.788235664367676 C220.14889526367188,-4.788235664367676 -61.28411102294922,-3.944613456726074 -61.28411102294922,-3.944613456726074"/></g></g></g></g><g transform="matrix(0.7071067690849304,-0.7071067690849304,0.7071067690849304,0.7071067690849304,211.443603515625,204.69808959960938)" opacity="1" style="display: none;"><g opacity="1" transform="matrix(1,0,0,1,0,0)"><path stroke-linecap="butt" stroke-linejoin="miter" fill-opacity="0" stroke-miterlimit="4" class="primary" stroke="rgb(197,156,244)" stroke-opacity="1" stroke-width="2" d="M0 0"/></g><path class="primary" fill="rgb(197,156,244)" fill-opacity="1" d=" M-68.87310028076172,20.131526947021484 C-68.87310028076172,20.275232315063477 -102.8821029663086,20.39055633544922 -144.83509826660156,20.39055633544922 C-186.78810119628906,20.39055633544922 -220.79811096191406,20.275232315063477 -220.79811096191406,20.131526947021484 C-220.79811096191406,19.987823486328125 -186.78810119628906,19.87150001525879 -144.83509826660156,19.87150001525879 C-102.8821029663086,19.87150001525879 -68.87310028076172,19.987823486328125 -68.87310028076172,20.131526947021484z M-99.59210205078125,20.131528854370117 C-99.59210205078125,20.04645347595215 -119.84810638427734,19.976179122924805 -144.83509826660156,19.976179122924805 C-169.8220977783203,19.976179122924805 -190.0791015625,20.04645347595215 -190.0791015625,20.131526947021484 C-190.0791015625,20.216602325439453 -169.8220977783203,20.285877227783203 -144.83509826660156,20.285877227783203 C-119.84810638427734,20.285877227783203 -99.59210205078125,20.216602325439453 -99.59210205078125,20.131528854370117z"/><path class="primary" fill="rgb(197,156,244)" fill-opacity="0.5" d=" M-68.87310028076172,20.131526947021484 C-68.87310028076172,20.275232315063477 -102.8821029663086,20.39055633544922 -144.83509826660156,20.39055633544922 C-186.78810119628906,20.39055633544922 -220.79811096191406,20.275232315063477 -220.79811096191406,20.131526947021484 C-220.79811096191406,19.987823486328125 -186.78810119628906,19.87150001525879 -144.83509826660156,19.87150001525879 C-102.8821029663086,19.87150001525879 -68.87310028076172,19.987823486328125 -68.87310028076172,20.131526947021484z M-99.59210205078125,20.131528854370117 C-99.59210205078125,20.04645347595215 -119.84810638427734,19.976179122924805 -144.83509826660156,19.976179122924805 C-169.8220977783203,19.976179122924805 -190.0791015625,20.04645347595215 -190.0791015625,20.131526947021484 C-190.0791015625,20.216602325439453 -169.8220977783203,20.285877227783203 -144.83509826660156,20.285877227783203 C-119.84810638427734,20.285877227783203 -99.59210205078125,20.216602325439453 -99.59210205078125,20.131528854370117z" style="mix-blend-mode: multiply;"/><g opacity="1" transform="matrix(1,0,0,1,0,0)"/></g><g transform="matrix(0.7071067690849304,-0.7071067690849304,0.7071067690849304,0.7071067690849304,211.443603515625,204.69808959960938)" opacity="1" style="display: block;"><g opacity="1" transform="matrix(1,0,0,1,0,0)"><path stroke-linecap="butt" stroke-linejoin="miter" fill-opacity="0" stroke-miterlimit="4" class="primary" stroke="rgb(197,156,244)" stroke-opacity="1" stroke-width="2" d="M0 0"/></g><g opacity="1" transform="matrix(1,0,0,1,0,0)"><path class="primary" fill="rgb(197,156,244)" fill-opacity="1" d=" M-69.00199890136719,7.142000198364258 C-69.00199890136719,-34.59199905395508 -103.01200103759766,-68.42500305175781 -144.96499633789062,-68.42500305175781 C-186.91799926757812,-68.42500305175781 -220.927001953125,-34.59199905395508 -220.927001953125,7.142000198364258 C-220.927001953125,48.875999450683594 -186.91799926757812,82.70800018310547 -144.96499633789062,82.70800018310547 C-103.01200103759766,82.70800018310547 -69.00199890136719,48.875999450683594 -69.00199890136719,7.142000198364258z M-99.72200012207031,7.142000198364258 C-99.72200012207031,31.999000549316406 -119.97799682617188,52.14799880981445 -144.96499633789062,52.14799880981445 C-169.95199584960938,52.14799880981445 -190.20799255371094,31.999000549316406 -190.20799255371094,7.142000198364258 C-190.20799255371094,-17.71500015258789 -169.95199584960938,-37.8650016784668 -144.96499633789062,-37.8650016784668 C-119.97799682617188,-37.8650016784668 -99.72200012207031,-17.71500015258789 -99.72200012207031,7.142000198364258z"/><path class="primary" fill="rgb(197,156,244)" fill-opacity="0.5" d=" M-69.00199890136719,7.142000198364258 C-69.00199890136719,-34.59199905395508 -103.01200103759766,-68.42500305175781 -144.96499633789062,-68.42500305175781 C-186.91799926757812,-68.42500305175781 -220.927001953125,-34.59199905395508 -220.927001953125,7.142000198364258 C-220.927001953125,48.875999450683594 -186.91799926757812,82.70800018310547 -144.96499633789062,82.70800018310547 C-103.01200103759766,82.70800018310547 -69.00199890136719,48.875999450683594 -69.00199890136719,7.142000198364258z M-99.72200012207031,7.142000198364258 C-99.72200012207031,31.999000549316406 -119.97799682617188,52.14799880981445 -144.96499633789062,52.14799880981445 C-169.95199584960938,52.14799880981445 -190.20799255371094,31.999000549316406 -190.20799255371094,7.142000198364258 C-190.20799255371094,-17.71500015258789 -169.95199584960938,-37.8650016784668 -144.96499633789062,-37.8650016784668 C-119.97799682617188,-37.8650016784668 -99.72200012207031,-17.71500015258789 -99.72200012207031,7.142000198364258z" style="mix-blend-mode: multiply;"/></g></g><g transform="matrix(0.7071067690849304,-0.7071067690849304,-0.7071067690849304,-0.7071067690849304,221.54391479492188,216.44540405273438)" opacity="1" style="display: none;"><g opacity="1" transform="matrix(1,0,0,1,0,0)"><path stroke-linecap="butt" stroke-linejoin="miter" fill-opacity="0" stroke-miterlimit="4" class="primary" stroke="rgb(197,156,244)" stroke-opacity="1" stroke-width="2" d="M0 0"/></g><g opacity="1" transform="matrix(1,0,0,1,0,0)"><path class="primary" fill="rgb(197,156,244)" fill-opacity="1" d=" M-68.9740219116211,-4.848333835601807 C-68.9740219116211,-4.772039413452148 -102.98302459716797,-4.711362838745117 -144.93601989746094,-4.711362838745117 C-186.88902282714844,-4.711362838745117 -220.89901733398438,-4.772039413452148 -220.89901733398438,-4.848333835601807 C-220.89901733398438,-4.924628257751465 -186.88902282714844,-4.986304759979248 -144.93601989746094,-4.986304759979248 C-102.98302459716797,-4.986304759979248 -68.9740219116211,-4.924628257751465 -68.9740219116211,-4.848333835601807z M-99.69302368164062,-4.848333835601807 C-99.69302368164062,-4.893259048461914 -119.94902038574219,-4.930985450744629 -144.93601989746094,-4.930985450744629 C-169.9230194091797,-4.930985450744629 -190.17901611328125,-4.893259048461914 -190.17901611328125,-4.848333835601807 C-190.17901611328125,-4.803408622741699 -169.9230194091797,-4.766682147979736 -144.93601989746094,-4.766682147979736 C-119.94902038574219,-4.766682147979736 -99.69302368164062,-4.803408622741699 -99.69302368164062,-4.848333835601807z"/><path class="primary" fill="rgb(197,156,244)" fill-opacity="0.5" d=" M-68.9740219116211,-4.848333835601807 C-68.9740219116211,-4.772039413452148 -102.98302459716797,-4.711362838745117 -144.93601989746094,-4.711362838745117 C-186.88902282714844,-4.711362838745117 -220.89901733398438,-4.772039413452148 -220.89901733398438,-4.848333835601807 C-220.89901733398438,-4.924628257751465 -186.88902282714844,-4.986304759979248 -144.93601989746094,-4.986304759979248 C-102.98302459716797,-4.986304759979248 -68.9740219116211,-4.924628257751465 -68.9740219116211,-4.848333835601807z M-99.69302368164062,-4.848333835601807 C-99.69302368164062,-4.893259048461914 -119.94902038574219,-4.930985450744629 -144.93601989746094,-4.930985450744629 C-169.9230194091797,-4.930985450744629 -190.17901611328125,-4.893259048461914 -190.17901611328125,-4.848333835601807 C-190.17901611328125,-4.803408622741699 -169.9230194091797,-4.766682147979736 -144.93601989746094,-4.766682147979736 C-119.94902038574219,-4.766682147979736 -99.69302368164062,-4.803408622741699 -99.69302368164062,-4.848333835601807z" style="mix-blend-mode: multiply;"/></g></g><g transform="matrix(1,0,0,1,215,215)" opacity="1" style="display: none;"><g opacity="1" transform="matrix(1,0,0,1,0,0)"><path stroke-linecap="butt" stroke-linejoin="miter" fill-opacity="0" stroke-miterlimit="4" class="primary" stroke="rgb(197,156,244)" stroke-opacity="1" stroke-width="2" d="M0 0"/></g><g opacity="1" transform="matrix(1,0,0,1,0,0)"><path class="primary" fill="rgb(197,156,244)" fill-opacity="1" d=" M-52.4976692199707,33.505191802978516 C-52.515533447265625,33.49574661254883 -90.6335678100586,72.00272369384766 -109.70587158203125,91.29149627685547 C-126.91998291015625,108.69862365722656 -161.258056640625,143.4893798828125 -161.2508544921875,143.4988250732422 C-161.2508087158203,143.49888610839844 -144.26446533203125,159.98580932617188 -144.26451110839844,159.9857635498047 C-144.27171325683594,159.97621154785156 -109.61299896240234,125.3384017944336 -92.2383804321289,108.00755310058594 C-73.0747299194336,88.89129638671875 -34.7769660949707,50.73320388793945 -34.76201629638672,50.7414436340332 C-34.7619743347168,50.74146270751953 -52.49762725830078,33.50521469116211 -52.4976692199707,33.505191802978516z"/><path class="primary" fill="rgb(197,156,244)" fill-opacity="0.5" d=" M-52.4976692199707,33.505191802978516 C-52.515533447265625,33.49574661254883 -90.6335678100586,72.00272369384766 -109.70587158203125,91.29149627685547 C-126.91998291015625,108.69862365722656 -161.258056640625,143.4893798828125 -161.2508544921875,143.4988250732422 C-161.2508087158203,143.49888610839844 -144.26446533203125,159.98580932617188 -144.26451110839844,159.9857635498047 C-144.27171325683594,159.97621154785156 -109.61299896240234,125.3384017944336 -92.2383804321289,108.00755310058594 C-73.0747299194336,88.89129638671875 -34.7769660949707,50.73320388793945 -34.76201629638672,50.7414436340332 C-34.7619743347168,50.74146270751953 -52.49762725830078,33.50521469116211 -52.4976692199707,33.505191802978516z" style="mix-blend-mode: multiply;"/></g></g><g transform="matrix(1,0,0,1,215,215)" opacity="1" style="display: none;"><g opacity="1" transform="matrix(1,0,0,1,0,0)"><path stroke-linecap="butt" stroke-linejoin="miter" fill-opacity="0" stroke-miterlimit="4" class="primary" stroke="rgb(197,156,244)" stroke-opacity="1" stroke-width="2" d="M0 0"/></g><g opacity="1" transform="matrix(1,0,0,1,0,0)"><path class="primary" fill="rgb(197,156,244)" fill-opacity="1" d=" M-49.60200500488281,39.95698547363281 C-71.81195831298828,28.212011337280273 -113.70294952392578,9.54514217376709 -151.78289794921875,43.45410919189453 C-195.2268524169922,82.1390609741211 -171.26397705078125,130.29302978515625 -162.31399536132812,142.0469970703125 C-162.2639923095703,142.11300659179688 -162.24195861816406,142.36204528808594 -162.29196166992188,142.29603576660156 C-171.25294494628906,130.4170684814453 -195.33380126953125,82.35509490966797 -151.09886169433594,42.85214614868164 C-111.24991607666016,7.266185283660889 -68.27692413330078,29.8680477142334 -49.69196701049805,40.10902404785156 C-49.63996505737305,40.13702392578125 -49.55000686645508,39.9849853515625 -49.60200500488281,39.95698547363281z"/><path class="primary" fill="rgb(197,156,244)" fill-opacity="0.5" d=" M-49.60200500488281,39.95698547363281 C-71.81195831298828,28.212011337280273 -113.70294952392578,9.54514217376709 -151.78289794921875,43.45410919189453 C-195.2268524169922,82.1390609741211 -171.26397705078125,130.29302978515625 -162.31399536132812,142.0469970703125 C-162.2639923095703,142.11300659179688 -162.24195861816406,142.36204528808594 -162.29196166992188,142.29603576660156 C-171.25294494628906,130.4170684814453 -195.33380126953125,82.35509490966797 -151.09886169433594,42.85214614868164 C-111.24991607666016,7.266185283660889 -68.27692413330078,29.8680477142334 -49.69196701049805,40.10902404785156 C-49.63996505737305,40.13702392578125 -49.55000686645508,39.9849853515625 -49.60200500488281,39.95698547363281z" style="mix-blend-mode: multiply;"/></g></g><g transform="matrix(1,0,0,1,215,215)" opacity="1" style="display: none;"><g opacity="1" transform="matrix(1,0,0,1,0,0)"><path stroke-linecap="butt" stroke-linejoin="miter" fill-opacity="0" stroke-miterlimit="4" class="primary" stroke="rgb(197,156,244)" stroke-opacity="1" stroke-width="2" d="M0 0"/></g><g opacity="1" transform="matrix(1,0,0,1,0,0)"><path class="primary" fill="rgb(197,156,244)" fill-opacity="1" d=" M-52.4954948425293,33.51004409790039 C-52.53003692626953,33.49177932739258 -90.6509017944336,71.95579528808594 -109.73748779296875,91.25554656982422 C-126.9713134765625,108.67866516113281 -161.26182556152344,143.4892120361328 -161.24790954589844,143.5074920654297 C-161.24783325195312,143.50758361816406 -144.2682342529297,159.99057006835938 -144.268310546875,159.99046325683594 C-144.28224182128906,159.97198486328125 -109.66091918945312,125.32859802246094 -92.26611328125,107.98108673095703 C-73.08692169189453,88.85244750976562 -34.80213928222656,50.717529296875 -34.77323913574219,50.73345184326172 C-34.77315902709961,50.73349380493164 -52.49541091918945,33.51008605957031 -52.4954948425293,33.51004409790039z"/><path class="primary" fill="rgb(197,156,244)" fill-opacity="0.5" d=" M-52.4954948425293,33.51004409790039 C-52.53003692626953,33.49177932739258 -90.6509017944336,71.95579528808594 -109.73748779296875,91.25554656982422 C-126.9713134765625,108.67866516113281 -161.26182556152344,143.4892120361328 -161.24790954589844,143.5074920654297 C-161.24783325195312,143.50758361816406 -144.2682342529297,159.99057006835938 -144.268310546875,159.99046325683594 C-144.28224182128906,159.97198486328125 -109.66091918945312,125.32859802246094 -92.26611328125,107.98108673095703 C-73.08692169189453,88.85244750976562 -34.80213928222656,50.717529296875 -34.77323913574219,50.73345184326172 C-34.77315902709961,50.73349380493164 -52.49541091918945,33.51008605957031 -52.4954948425293,33.51004409790039z" style="mix-blend-mode: multiply;"/></g></g><g transform="matrix(1,0,0,1,215,215)" opacity="1" style="display: none;"><g opacity="1" transform="matrix(1,0,0,1,0,0)"><path stroke-linecap="butt" stroke-linejoin="miter" fill-opacity="0" stroke-miterlimit="4" class="primary" stroke="rgb(197,156,244)" stroke-opacity="1" stroke-width="2" d="M0 0"/></g><g opacity="1" transform="matrix(1,0,0,1,0,0)"><path class="primary" fill="rgb(197,156,244)" fill-opacity="1" d=" M-49.60200119018555,39.95699691772461 C-71.81199645996094,28.21200180053711 -113.70299530029297,9.545022010803223 -151.78298950195312,43.454017639160156 C-195.2269744873047,82.13900756835938 -171.2639923095703,130.29299926757812 -162.31399536132812,142.0469970703125 C-162.2639923095703,142.11300659179688 -162.2419891357422,142.3620147705078 -162.2919921875,142.29600524902344 C-171.25299072265625,130.41700744628906 -195.33396911621094,82.35501861572266 -151.09898376464844,42.85202407836914 C-111.24998474121094,7.26602840423584 -68.27698516845703,29.86800765991211 -49.691993713378906,40.109004974365234 C-49.63999557495117,40.13700485229492 -49.54999923706055,39.9849967956543 -49.60200119018555,39.95699691772461z"/><path class="primary" fill="rgb(197,156,244)" fill-opacity="0.5" d=" M-49.60200119018555,39.95699691772461 C-71.81199645996094,28.21200180053711 -113.70299530029297,9.545022010803223 -151.78298950195312,43.454017639160156 C-195.2269744873047,82.13900756835938 -171.2639923095703,130.29299926757812 -162.31399536132812,142.0469970703125 C-162.2639923095703,142.11300659179688 -162.2419891357422,142.3620147705078 -162.2919921875,142.29600524902344 C-171.25299072265625,130.41700744628906 -195.33396911621094,82.35501861572266 -151.09898376464844,42.85202407836914 C-111.24998474121094,7.26602840423584 -68.27698516845703,29.86800765991211 -49.691993713378906,40.109004974365234 C-49.63999557495117,40.13700485229492 -49.54999923706055,39.9849967956543 -49.60200119018555,39.95699691772461z" style="mix-blend-mode: multiply;"/></g></g><g clip-path="url(#__lottie_element_51)" transform="matrix(1,0,0,1,0,0)" opacity="1" style="display: block;"><g transform="matrix(0.7071067690849304,-0.7071067690849304,0.7071067690849304,0.7071067690849304,211.443603515625,204.69808959960938)" opacity="1" style="display: none;"><path class="primary" fill="rgb(197,156,244)" fill-opacity="1" d=" M-75.75740814208984,-5.2252197265625 C-75.75740814208984,-5.2252197265625 -75.13143920898438,0.5850558280944824 -75.21942901611328,7.147427558898926 C-75.30342864990234,13.35236930847168 -75.71244049072266,20.13340187072754 -75.71244049072266,20.13340187072754 C-75.71244049072266,20.13340187072754 -47.863037109375,19.962970733642578 -47.863037109375,19.962970733642578 C-40.94003677368164,19.962970733642578 -35.32703399658203,14.349969863891602 -35.32703399658203,7.4269700050354 C-35.32703399658203,7.4269700050354 -35.32703399658203,7.4269700050354 -35.32703399658203,7.4269700050354 C-35.32703399658203,7.4269700050354 -35.37099838256836,7.4930644035339355 -35.37099838256836,7.4930644035339355 C-35.37099838256836,7.4930644035339355 -35.37099838256836,7.4930644035339355 -35.37099838256836,7.4930644035339355 C-35.37099838256836,0.5700645446777344 -40.98400115966797,-5.042935371398926 -47.90700149536133,-5.042935371398926 C-47.90700149536133,-5.042935371398926 -75.75740814208984,-5.2252197265625 -75.75740814208984,-5.2252197265625z"/><g opacity="1" transform="matrix(1,0,0,1,0,0)"/></g><g transform="matrix(0.7071067690849304,-0.7071067690849304,0.7071067690849304,0.7071067690849304,211.443603515625,204.69808959960938)" opacity="1" style="display: block;"><path class="primary" fill="rgb(197,156,244)" fill-opacity="1" d=" M-83.70600128173828,-30.30699920654297 C-83.70600128173828,-30.30699920654297 -74.43399810791016,-19.19300079345703 -74.51300048828125,7.677999973297119 C-74.59700012207031,36.138999938964844 -83.70600128173828,44.20000076293945 -83.70600128173828,44.20000076293945 C-83.70600128173828,44.20000076293945 -47.90700149536133,44.736000061035156 -47.90700149536133,44.736000061035156 C-40.98400115966797,44.736000061035156 -35.37099838256836,39.12200164794922 -35.37099838256836,32.19900131225586 C-35.37099838256836,32.19900131225586 -35.37099838256836,32.19900131225586 -35.37099838256836,32.19900131225586 C-35.37099838256836,32.19900131225586 -35.37099838256836,-17.236000061035156 -35.37099838256836,-17.236000061035156 C-35.37099838256836,-17.236000061035156 -35.37099838256836,-17.236000061035156 -35.37099838256836,-17.236000061035156 C-35.37099838256836,-24.159000396728516 -40.98400115966797,-29.77199935913086 -47.90700149536133,-29.77199935913086 C-47.90700149536133,-29.77199935913086 -83.70600128173828,-30.30699920654297 -83.70600128173828,-30.30699920654297z"/><g opacity="1" transform="matrix(1,0,0,1,0,0)"/></g><g transform="matrix(0.7071067690849304,-0.7071067690849304,-0.7071067690849304,-0.7071067690849304,221.54391479492188,216.44540405273438)" opacity="1" style="display: none;"><path class="primary" fill="rgb(197,156,244)" fill-opacity="1" d=" M-75.75740814208984,-5.2252197265625 C-75.75740814208984,-5.2252197265625 -75.13143920898438,0.5850558280944824 -75.21942901611328,7.147427558898926 C-75.30342864990234,13.35236930847168 -75.71244049072266,20.13340187072754 -75.71244049072266,20.13340187072754 C-75.71244049072266,20.13340187072754 -47.863037109375,19.962970733642578 -47.863037109375,19.962970733642578 C-40.94003677368164,19.962970733642578 -35.32703399658203,14.349969863891602 -35.32703399658203,7.4269700050354 C-35.32703399658203,7.4269700050354 -35.32703399658203,7.4269700050354 -35.32703399658203,7.4269700050354 C-35.32703399658203,7.4269700050354 -35.37099838256836,7.4930644035339355 -35.37099838256836,7.4930644035339355 C-35.37099838256836,7.4930644035339355 -35.37099838256836,7.4930644035339355 -35.37099838256836,7.4930644035339355 C-35.37099838256836,0.5700645446777344 -40.98400115966797,-5.042935371398926 -47.90700149536133,-5.042935371398926 C-47.90700149536133,-5.042935371398926 -75.75740814208984,-5.2252197265625 -75.75740814208984,-5.2252197265625z"/><g opacity="1" transform="matrix(1,0,0,1,0,0)"/></g></g><g mask="url(#__lottie_element_58_2)" style="mix-blend-mode: multiply; display: block;"><g clip-path="url(#__lottie_element_55)" transform="matrix(1,0,0,1,0,0)" opacity="0.5"><g transform="matrix(0.7071067690849304,-0.7071067690849304,0.7071067690849304,0.7071067690849304,211.443603515625,204.69808959960938)" opacity="1" style="display: none;"><path class="primary" fill="rgb(197,156,244)" fill-opacity="1" d=" M-75.75740814208984,-5.2252197265625 C-75.75740814208984,-5.2252197265625 -75.13143920898438,0.5850558280944824 -75.21942901611328,7.147427558898926 C-75.30342864990234,13.35236930847168 -75.71244049072266,20.13340187072754 -75.71244049072266,20.13340187072754 C-75.71244049072266,20.13340187072754 -47.863037109375,19.962970733642578 -47.863037109375,19.962970733642578 C-40.94003677368164,19.962970733642578 -35.32703399658203,14.349969863891602 -35.32703399658203,7.4269700050354 C-35.32703399658203,7.4269700050354 -35.32703399658203,7.4269700050354 -35.32703399658203,7.4269700050354 C-35.32703399658203,7.4269700050354 -35.37099838256836,7.4930644035339355 -35.37099838256836,7.4930644035339355 C-35.37099838256836,7.4930644035339355 -35.37099838256836,7.4930644035339355 -35.37099838256836,7.4930644035339355 C-35.37099838256836,0.5700645446777344 -40.98400115966797,-5.042935371398926 -47.90700149536133,-5.042935371398926 C-47.90700149536133,-5.042935371398926 -75.75740814208984,-5.2252197265625 -75.75740814208984,-5.2252197265625z"/><g opacity="1" transform="matrix(1,0,0,1,0,0)"/></g><g transform="matrix(0.7071067690849304,-0.7071067690849304,0.7071067690849304,0.7071067690849304,211.443603515625,204.69808959960938)" opacity="1" style="display: block;"><path class="primary" fill="rgb(197,156,244)" fill-opacity="1" d=" M-83.70600128173828,-30.30699920654297 C-83.70600128173828,-30.30699920654297 -74.43399810791016,-19.19300079345703 -74.51300048828125,7.677999973297119 C-74.59700012207031,36.138999938964844 -83.70600128173828,44.20000076293945 -83.70600128173828,44.20000076293945 C-83.70600128173828,44.20000076293945 -47.90700149536133,44.736000061035156 -47.90700149536133,44.736000061035156 C-40.98400115966797,44.736000061035156 -35.37099838256836,39.12200164794922 -35.37099838256836,32.19900131225586 C-35.37099838256836,32.19900131225586 -35.37099838256836,32.19900131225586 -35.37099838256836,32.19900131225586 C-35.37099838256836,32.19900131225586 -35.37099838256836,-17.236000061035156 -35.37099838256836,-17.236000061035156 C-35.37099838256836,-17.236000061035156 -35.37099838256836,-17.236000061035156 -35.37099838256836,-17.236000061035156 C-35.37099838256836,-24.159000396728516 -40.98400115966797,-29.77199935913086 -47.90700149536133,-29.77199935913086 C-47.90700149536133,-29.77199935913086 -83.70600128173828,-30.30699920654297 -83.70600128173828,-30.30699920654297z"/><g opacity="1" transform="matrix(1,0,0,1,0,0)"/></g><g transform="matrix(0.7071067690849304,-0.7071067690849304,-0.7071067690849304,-0.7071067690849304,221.54391479492188,216.44540405273438)" opacity="1" style="display: none;"><path class="primary" fill="rgb(197,156,244)" fill-opacity="1" d=" M-75.75740814208984,-5.2252197265625 C-75.75740814208984,-5.2252197265625 -75.13143920898438,0.5850558280944824 -75.21942901611328,7.147427558898926 C-75.30342864990234,13.35236930847168 -75.71244049072266,20.13340187072754 -75.71244049072266,20.13340187072754 C-75.71244049072266,20.13340187072754 -47.863037109375,19.962970733642578 -47.863037109375,19.962970733642578 C-40.94003677368164,19.962970733642578 -35.32703399658203,14.349969863891602 -35.32703399658203,7.4269700050354 C-35.32703399658203,7.4269700050354 -35.32703399658203,7.4269700050354 -35.32703399658203,7.4269700050354 C-35.32703399658203,7.4269700050354 -35.37099838256836,7.4930644035339355 -35.37099838256836,7.4930644035339355 C-35.37099838256836,7.4930644035339355 -35.37099838256836,7.4930644035339355 -35.37099838256836,7.4930644035339355 C-35.37099838256836,0.5700645446777344 -40.98400115966797,-5.042935371398926 -47.90700149536133,-5.042935371398926 C-47.90700149536133,-5.042935371398926 -75.75740814208984,-5.2252197265625 -75.75740814208984,-5.2252197265625z"/><g opacity="1" transform="matrix(1,0,0,1,0,0)"/></g></g></g><g clip-path="url(#__lottie_element_63)" transform="matrix(1,0,0,1,0,0)" opacity="1" style="display: block;"><g transform="matrix(0.7071067690849304,-0.7071067690849304,0.7071067690849304,0.7071067690849304,211.443603515625,204.69808959960938)" opacity="1" style="display: none;"><g opacity="1" transform="matrix(1,0,0,1,0,0)"><path class="primary" fill="rgb(197,156,244)" fill-opacity="1" d=" M-68.9740219116211,-4.848334789276123 C-68.9740219116211,-4.704629898071289 -102.98302459716797,-4.589305877685547 -144.93601989746094,-4.589305877685547 C-186.88902282714844,-4.589305877685547 -220.89901733398438,-4.704629898071289 -220.89901733398438,-4.848334789276123 C-220.89901733398438,-4.992039680480957 -186.88902282714844,-5.108362197875977 -144.93601989746094,-5.108362197875977 C-102.98302459716797,-5.108362197875977 -68.9740219116211,-4.992039680480957 -68.9740219116211,-4.848334789276123z M-99.69302368164062,-4.848333835601807 C-99.69302368164062,-4.933408737182617 -119.94902038574219,-5.0036821365356445 -144.93601989746094,-5.0036821365356445 C-169.9230194091797,-5.0036821365356445 -190.17901611328125,-4.933409690856934 -190.17901611328125,-4.848334789276123 C-190.17901611328125,-4.7632598876953125 -169.9230194091797,-4.693985462188721 -144.93601989746094,-4.693985462188721 C-119.94902038574219,-4.693985462188721 -99.69302368164062,-4.763258934020996 -99.69302368164062,-4.848333835601807z"/></g></g><g transform="matrix(0.7071067690849304,-0.7071067690849304,0.7071067690849304,0.7071067690849304,211.443603515625,204.69808959960938)" opacity="1" style="display: block;"><g opacity="1" transform="matrix(1,0,0,1,0,0)"><path class="primary" fill="rgb(197,156,244)" fill-opacity="1" d=" M-69.00199890136719,7.142000198364258 C-69.00199890136719,-34.59199905395508 -103.01200103759766,-68.42500305175781 -144.96499633789062,-68.42500305175781 C-186.91799926757812,-68.42500305175781 -220.927001953125,-34.59199905395508 -220.927001953125,7.142000198364258 C-220.927001953125,48.875999450683594 -186.91799926757812,82.70800018310547 -144.96499633789062,82.70800018310547 C-103.01200103759766,82.70800018310547 -69.00199890136719,48.875999450683594 -69.00199890136719,7.142000198364258z M-99.72200012207031,7.142000198364258 C-99.72200012207031,31.999000549316406 -119.97799682617188,52.14799880981445 -144.96499633789062,52.14799880981445 C-169.95199584960938,52.14799880981445 -190.20799255371094,31.999000549316406 -190.20799255371094,7.142000198364258 C-190.20799255371094,-17.71500015258789 -169.95199584960938,-37.8650016784668 -144.96499633789062,-37.8650016784668 C-119.97799682617188,-37.8650016784668 -99.72200012207031,-17.71500015258789 -99.72200012207031,7.142000198364258z"/></g></g><g transform="matrix(0.7071067690849304,-0.7071067690849304,-0.7071067690849304,-0.7071067690849304,221.54391479492188,216.44540405273438)" opacity="1" style="display: none;"><g opacity="1" transform="matrix(1,0,0,1,0,0)"><path class="primary" fill="rgb(197,156,244)" fill-opacity="1" d=" M-68.87310028076172,20.131528854370117 C-68.87310028076172,20.207822799682617 -102.8821029663086,20.26849937438965 -144.83509826660156,20.26849937438965 C-186.78810119628906,20.26849937438965 -220.79811096191406,20.207822799682617 -220.79811096191406,20.131528854370117 C-220.79811096191406,20.055234909057617 -186.78810119628906,19.99355697631836 -144.83509826660156,19.99355697631836 C-102.8821029663086,19.99355697631836 -68.87310028076172,20.055234909057617 -68.87310028076172,20.131528854370117z M-99.59210205078125,20.131528854370117 C-99.59210205078125,20.08660316467285 -119.84810638427734,20.048877716064453 -144.83509826660156,20.048877716064453 C-169.8220977783203,20.048877716064453 -190.0791015625,20.08660316467285 -190.0791015625,20.131528854370117 C-190.0791015625,20.176454544067383 -169.8220977783203,20.213180541992188 -144.83509826660156,20.213180541992188 C-119.84810638427734,20.213180541992188 -99.59210205078125,20.176454544067383 -99.59210205078125,20.131528854370117z"/></g></g></g><g mask="url(#__lottie_element_70_2)" style="mix-blend-mode: multiply; display: block;"><g clip-path="url(#__lottie_element_67)" transform="matrix(1,0,0,1,0,0)" opacity="0.5"><g transform="matrix(0.7071067690849304,-0.7071067690849304,0.7071067690849304,0.7071067690849304,211.443603515625,204.69808959960938)" opacity="1" style="display: none;"><g opacity="1" transform="matrix(1,0,0,1,0,0)"><path class="primary" fill="rgb(197,156,244)" fill-opacity="1" d=" M-68.9740219116211,-4.848334789276123 C-68.9740219116211,-4.704629898071289 -102.98302459716797,-4.589305877685547 -144.93601989746094,-4.589305877685547 C-186.88902282714844,-4.589305877685547 -220.89901733398438,-4.704629898071289 -220.89901733398438,-4.848334789276123 C-220.89901733398438,-4.992039680480957 -186.88902282714844,-5.108362197875977 -144.93601989746094,-5.108362197875977 C-102.98302459716797,-5.108362197875977 -68.9740219116211,-4.992039680480957 -68.9740219116211,-4.848334789276123z M-99.69302368164062,-4.848333835601807 C-99.69302368164062,-4.933408737182617 -119.94902038574219,-5.0036821365356445 -144.93601989746094,-5.0036821365356445 C-169.9230194091797,-5.0036821365356445 -190.17901611328125,-4.933409690856934 -190.17901611328125,-4.848334789276123 C-190.17901611328125,-4.7632598876953125 -169.9230194091797,-4.693985462188721 -144.93601989746094,-4.693985462188721 C-119.94902038574219,-4.693985462188721 -99.69302368164062,-4.763258934020996 -99.69302368164062,-4.848333835601807z"/></g></g><g transform="matrix(0.7071067690849304,-0.7071067690849304,0.7071067690849304,0.7071067690849304,211.443603515625,204.69808959960938)" opacity="1" style="display: block;"><g opacity="1" transform="matrix(1,0,0,1,0,0)"><path class="primary" fill="rgb(197,156,244)" fill-opacity="1" d=" M-69.00199890136719,7.142000198364258 C-69.00199890136719,-34.59199905395508 -103.01200103759766,-68.42500305175781 -144.96499633789062,-68.42500305175781 C-186.91799926757812,-68.42500305175781 -220.927001953125,-34.59199905395508 -220.927001953125,7.142000198364258 C-220.927001953125,48.875999450683594 -186.91799926757812,82.70800018310547 -144.96499633789062,82.70800018310547 C-103.01200103759766,82.70800018310547 -69.00199890136719,48.875999450683594 -69.00199890136719,7.142000198364258z M-99.72200012207031,7.142000198364258 C-99.72200012207031,31.999000549316406 -119.97799682617188,52.14799880981445 -144.96499633789062,52.14799880981445 C-169.95199584960938,52.14799880981445 -190.20799255371094,31.999000549316406 -190.20799255371094,7.142000198364258 C-190.20799255371094,-17.71500015258789 -169.95199584960938,-37.8650016784668 -144.96499633789062,-37.8650016784668 C-119.97799682617188,-37.8650016784668 -99.72200012207031,-17.71500015258789 -99.72200012207031,7.142000198364258z"/></g></g><g transform="matrix(0.7071067690849304,-0.7071067690849304,-0.7071067690849304,-0.7071067690849304,221.54391479492188,216.44540405273438)" opacity="1" style="display: none;"><g opacity="1" transform="matrix(1,0,0,1,0,0)"><path class="primary" fill="rgb(197,156,244)" fill-opacity="1" d=" M-68.87310028076172,20.131528854370117 C-68.87310028076172,20.207822799682617 -102.8821029663086,20.26849937438965 -144.83509826660156,20.26849937438965 C-186.78810119628906,20.26849937438965 -220.79811096191406,20.207822799682617 -220.79811096191406,20.131528854370117 C-220.79811096191406,20.055234909057617 -186.78810119628906,19.99355697631836 -144.83509826660156,19.99355697631836 C-102.8821029663086,19.99355697631836 -68.87310028076172,20.055234909057617 -68.87310028076172,20.131528854370117z M-99.59210205078125,20.131528854370117 C-99.59210205078125,20.08660316467285 -119.84810638427734,20.048877716064453 -144.83509826660156,20.048877716064453 C-169.8220977783203,20.048877716064453 -190.0791015625,20.08660316467285 -190.0791015625,20.131528854370117 C-190.0791015625,20.176454544067383 -169.8220977783203,20.213180541992188 -144.83509826660156,20.213180541992188 C-119.84810638427734,20.213180541992188 -99.59210205078125,20.176454544067383 -99.59210205078125,20.131528854370117z"/></g></g></g></g><g transform="matrix(1,0,0,1,215,215)" opacity="1" style="display: none;"><g opacity="1" transform="matrix(1,0,0,1,0,0)"><path stroke-linecap="butt" stroke-linejoin="miter" fill-opacity="0" stroke-miterlimit="4" class="primary" stroke="rgb(197,156,244)" stroke-opacity="1" stroke-width="2" d="M0 0"/></g><g opacity="1" transform="matrix(1,0,0,1,0,0)"><path class="primary" fill="rgb(197,156,244)" fill-opacity="1" d=" M-48,40.75 C-29.50000762939453,57.749996185302734 -6.308029651641846,115.55598449707031 -50.53902053833008,154.9419708251953 C-101.00000762939453,199.87496948242188 -153.375,156 -161.25,143.5 C-161.29400634765625,143.4290008544922 -161.2939910888672,143.1790008544922 -161.25,143.25 C-153.37498474121094,155.875 -101.125,200.12496948242188 -49.74501419067383,154.2419891357422 C-3.459024667739868,112.90798950195312 -32.5,55.250003814697266 -47.874996185302734,40.62500762939453 C-47.91799545288086,40.584007263183594 -48.044002532958984,40.709999084472656 -48,40.75z"/></g></g><g transform="matrix(1,0,0,1,215,215)" opacity="1" style="display: none;"><g opacity="1" transform="matrix(1,0,0,1,0,0)"><path stroke-linecap="butt" stroke-linejoin="miter" fill-opacity="0" stroke-miterlimit="4" class="primary" stroke="rgb(197,156,244)" stroke-opacity="1" stroke-width="2" d="M0 0"/></g><g opacity="1" transform="matrix(1,0,0,1,0,0)"><path class="primary" fill="rgb(197,156,244)" fill-opacity="1" d=" M-48.000003814697266,40.74999237060547 C-29.500028610229492,57.749969482421875 -6.308097839355469,115.55595397949219 -50.539066314697266,154.94192504882812 C-101.0000228881836,199.87489318847656 -153.37501525878906,155.99998474121094 -161.25,143.5 C-161.29400634765625,143.4290008544922 -161.29397583007812,143.1790313720703 -161.24996948242188,143.25003051757812 C-153.37498474121094,155.87501525878906 -101.12503814697266,200.1249542236328 -49.74504470825195,154.241943359375 C-3.4590587615966797,112.907958984375 -32.500003814697266,55.249996185302734 -47.87498474121094,40.6250114440918 C-47.91798400878906,40.58401107788086 -48.04400634765625,40.709991455078125 -48.000003814697266,40.74999237060547z"/></g></g></g></g></svg>